<svg width="84" height="54" viewBox="0 0 84 54" fill="none" xmlns="http://www.w3.org/2000/svg">
<g clip-path="url(#clip0_66_994)">
<path opacity="0.986" fill-rule="evenodd" clip-rule="evenodd" d="M53.946 6.642C53.946 17.478 53.946 28.314 53.946 39.15C53.3723 41.2037 52.0404 42.4817 49.95 42.984C44.2262 43.038 38.5022 43.056 32.778 43.038C32.778 44.622 32.778 46.206 32.778 47.79C35.4783 47.772 38.1783 47.79 40.878 47.844C41.076 47.898 41.202 48.024 41.256 48.222C41.3281 48.978 41.3281 49.734 41.256 50.49C41.2058 50.6446 41.1158 50.7705 40.986 50.868C31.626 50.94 22.2661 50.94 12.906 50.868C12.7763 50.7705 12.6863 50.6446 12.636 50.49C12.564 49.734 12.564 48.978 12.636 48.222C12.69 48.024 12.8161 47.898 13.014 47.844C15.7138 47.79 18.4138 47.772 21.114 47.79C21.114 46.206 21.114 44.622 21.114 43.038C15.3899 43.056 9.66594 43.038 3.94204 42.984C1.85173 42.4817 0.519727 41.2037 -0.0539551 39.15C-0.0539551 28.314 -0.0539551 17.478 -0.0539551 6.642C0.503364 4.69875 1.76336 3.45675 3.72605 2.916C19.206 2.844 34.6861 2.844 50.166 2.916C52.1287 3.45675 53.3888 4.69875 53.946 6.642ZM4.59004 6.21C19.494 6.192 34.398 6.21 49.302 6.264C49.9681 6.426 50.382 6.84 50.544 7.506C50.598 16.938 50.6161 26.3699 50.598 35.802C34.83 35.802 19.062 35.802 3.29404 35.802C3.27604 26.3699 3.29404 16.938 3.34805 7.506C3.52984 6.83843 3.94384 6.40643 4.59004 6.21ZM26.514 37.638C28.1857 37.6355 28.9957 38.4634 28.944 40.122C28.3225 41.6612 27.2605 42.0753 25.758 41.364C24.606 40.248 24.606 39.132 25.758 38.016C26.0199 37.885 26.272 37.7591 26.514 37.638Z" fill="#005842" fill-opacity="0.4"/>
</g>
<g clip-path="url(#clip1_66_994)">
<path opacity="0.985" fill-rule="evenodd" clip-rule="evenodd" d="M61.47 22.97C66.45 22.97 71.43 22.97 76.41 22.97C77.489 23.2791 78.179 23.9791 78.48 25.07C78.52 33.67 78.52 42.27 78.48 50.87C78.179 51.9609 77.489 52.6609 76.41 52.97C71.43 52.97 66.45 52.97 61.47 52.97C60.391 52.6609 59.7009 51.9609 59.4 50.87C59.36 42.27 59.36 33.67 59.4 25.07C59.7009 23.9791 60.391 23.2791 61.47 22.97ZM66.27 24.65C68.07 24.65 69.87 24.65 71.67 24.65C71.67 24.93 71.67 25.21 71.67 25.49C69.87 25.49 68.07 25.49 66.27 25.49C66.27 25.21 66.27 24.93 66.27 24.65ZM61.23 26.75C66.37 26.75 71.51 26.75 76.65 26.75C76.65 34.17 76.65 41.59 76.65 49.01C71.51 49.01 66.37 49.01 61.23 49.01C61.23 41.59 61.23 34.17 61.23 26.75ZM68.79 50.03C69.4394 50.0494 69.8194 50.3794 69.93 51.02C69.84 51.59 69.51 51.92 68.94 52.01C68.37 51.92 68.04 51.59 67.95 51.02C68.0288 50.5117 68.3089 50.1817 68.79 50.03Z" fill="#005842" fill-opacity="0.4"/>
</g>
<defs>
<clipPath id="clip0_66_994">
<rect width="54" height="54" fill="white"/>
</clipPath>
<clipPath id="clip1_66_994">
<rect width="30" height="30" fill="white" transform="translate(54 23)"/>
</clipPath>
</defs>
</svg>
