<svg width="185" height="50" viewBox="0 0 185 50" fill="none" xmlns="http://www.w3.org/2000/svg">
<g filter="url(#filter0_d_56_141)">
<path fill-rule="evenodd" clip-rule="evenodd" d="M104.952 0.197302C104.559 0.295851 104.104 0.449802 103.94 0.539346C103.776 0.629016 103.428 0.742822 103.166 0.792221C102.904 0.841746 102.631 0.932791 102.559 0.994572C102.488 1.05648 102.006 1.19605 101.488 1.30473C100.969 1.41353 100.376 1.58299 100.17 1.68141C99.9636 1.77971 99.7143 1.86025 99.616 1.86025C99.5178 1.86025 99.1507 2.00044 98.8003 2.17165C98.4499 2.34299 98.0492 2.48368 97.9097 2.48431C97.7704 2.48506 97.5897 2.56998 97.5081 2.67315C97.4265 2.77633 97.2657 2.86075 97.1508 2.86075C97.0358 2.86075 96.7342 2.95579 96.4805 3.07197C96.2268 3.18816 95.9925 3.29158 95.9598 3.30171C95.927 3.31184 95.8198 3.35074 95.7216 3.38826C95.6233 3.4259 95.3017 3.52958 95.0069 3.61887C94.7121 3.70817 94.4128 3.8266 94.3417 3.88188C94.1628 4.02145 92.4226 4.36149 91.8874 4.36149C91.6457 4.36149 91.4186 4.41101 91.383 4.47154C91.3474 4.5322 90.8485 4.62012 90.2743 4.66701C89.7001 4.71391 88.922 4.86136 88.545 4.99455C88.168 5.12787 87.787 5.23692 87.6982 5.23692C87.6093 5.23692 87.3391 5.37762 87.0978 5.54958C86.8564 5.72154 86.5649 5.86223 86.4499 5.86223C86.3349 5.86223 86.1898 5.91476 86.1277 5.97891C86.0654 6.0432 85.5857 6.33159 85.0617 6.61998C83.2064 7.64074 82.0768 8.27468 81.4885 8.62522C81.161 8.82032 80.5178 9.186 80.0592 9.43763C78.7176 10.174 77.9281 10.636 77.7367 10.7965C77.6384 10.879 77.1418 11.1672 76.6331 11.4371C75.4682 12.0549 75.0398 12.2997 74.8498 12.456C74.7672 12.5239 74.3779 12.7659 73.9849 12.9938C73.5918 13.2216 73.0023 13.5653 72.6747 13.7575C72.3472 13.9497 71.8916 14.2091 71.6623 14.3337C71.4331 14.4582 71.0043 14.7242 70.7095 14.9246C70.4147 15.1251 69.852 15.4566 69.4589 15.6615C69.0659 15.8663 68.5299 16.184 68.2679 16.3672C68.0058 16.5505 67.7017 16.7347 67.5921 16.7765C67.4824 16.8183 67.1608 17.0079 66.8774 17.1978C66.3143 17.5753 65.8437 17.8519 64.5756 18.5506C64.117 18.8034 63.4203 19.198 63.0272 19.4274C62.1404 19.9456 57.7034 22.2826 56.6551 22.7839C56.2293 22.9875 55.5058 23.3391 55.0472 23.5654C53.5132 24.322 52.3588 24.8716 52.3036 24.8716C52.2287 24.8716 50.8654 25.5298 49.5684 26.192C48.8389 26.5645 48.211 26.7852 47.6031 26.8829C46.9869 26.9819 46.4429 27.1749 45.8493 27.5049C45.2008 27.8656 44.746 28.0183 44.0032 28.1246C43.4611 28.2022 42.9104 28.3121 42.7794 28.369C42.4872 28.4959 40.5532 28.7486 39.8733 28.7486C39.6001 28.7486 39.2578 28.8267 39.1127 28.9223C38.9645 29.0199 38.1969 29.1574 37.3601 29.2361C36.178 29.3472 35.8341 29.4228 35.6909 29.6026C35.557 29.7708 35.3727 29.8208 34.9762 29.7967C34.3722 29.7601 33.5773 29.9439 33.3105 30.1818C33.2123 30.2694 32.9003 30.378 32.6173 30.4231C32.3342 30.4683 31.9859 30.5817 31.8432 30.6751C31.7004 30.7687 31.2669 30.8814 30.8801 30.9258C30.4932 30.9702 30.0109 31.0858 29.8081 31.1828C29.6054 31.2797 29.1984 31.4251 28.9037 31.5058C28.6089 31.5865 28.2605 31.7004 28.1295 31.7591C27.9985 31.8176 27.5697 31.9589 27.1766 32.073C26.7836 32.1871 26.4084 32.3207 26.3429 32.3699C26.2774 32.4189 25.9165 32.5284 25.541 32.6133C25.1654 32.6981 24.8273 32.82 24.7895 32.8841C24.7518 32.9483 24.6427 33.0007 24.5469 33.0007C24.4513 33.0007 24.173 33.1286 23.9286 33.2851C23.6844 33.4415 23.27 33.6421 23.008 33.731C22.7459 33.8199 22.4243 33.9423 22.2933 34.0028C21.2568 34.4825 20.4062 34.7515 19.9267 34.7515C19.5409 34.7515 19.2897 34.8254 19.1238 34.9876C18.9838 35.1247 18.7843 35.1969 18.6485 35.1596C18.5198 35.1243 18.3226 35.18 18.2101 35.2833C18.0976 35.3867 17.7376 35.5117 17.41 35.5608C17.0825 35.6101 16.7609 35.6935 16.6954 35.7462C16.6299 35.7988 16.1475 35.9432 15.6235 36.0672C15.0994 36.1911 14.617 36.3309 14.5515 36.3781C14.486 36.4251 14.1644 36.5373 13.8369 36.6275C13.5093 36.7176 13.1856 36.8359 13.1176 36.8905C12.9953 36.9884 12.3662 37.1722 11.47 37.3721C11.2165 37.4286 10.9753 37.5304 10.9341 37.5982C10.893 37.6661 10.6717 37.7633 10.4424 37.8143C10.2131 37.8652 9.97192 37.949 9.90642 38.0004C9.84091 38.0518 9.46573 38.1925 9.07268 38.313C8.67963 38.4337 8.18916 38.6103 7.98275 38.7055C7.77634 38.8007 7.55135 38.8786 7.48299 38.8786C7.4145 38.8786 6.94416 39.1037 6.43784 39.3788C5.93141 39.654 5.37924 39.8818 5.21058 39.8851C5.04193 39.8883 4.71642 39.9871 4.48714 40.1046C4.07885 40.3138 4.06956 40.3354 4.03514 41.1591L4 42L4.3329 41.8255C4.96904 41.4921 5.38138 41.3367 5.54694 41.3679C5.69605 41.3959 6.26597 41.1548 6.75013 40.8587C7.02205 40.6925 7.92201 40.2808 8.23895 40.1777C8.30445 40.1565 8.54647 40.0894 8.7767 40.0289C9.00705 39.9682 9.38223 39.8278 9.61044 39.7167C9.83876 39.6057 10.2785 39.4499 10.5877 39.3703C10.8969 39.2909 11.2116 39.1478 11.2871 39.0523C11.3626 38.9567 11.5346 38.8786 11.6693 38.8786C11.9013 38.8786 12.4778 38.7127 13.0031 38.495C13.374 38.3413 15.582 37.6468 15.9808 37.5585C16.1773 37.515 16.4995 37.404 16.6968 37.3118C16.8942 37.2196 17.3353 37.1052 17.6774 37.0576C18.0194 37.01 18.3602 36.8937 18.4349 36.7992C18.5096 36.7047 18.7522 36.6275 18.9741 36.6275C19.2302 36.6275 19.4521 36.536 19.5815 36.3773C19.7372 36.1864 19.9329 36.1272 20.4085 36.1272C20.7512 36.1272 21.1815 36.0636 21.3647 35.9858C21.5479 35.908 21.8586 35.7733 22.0551 35.6864C22.2516 35.5995 22.868 35.3443 23.4248 35.1193C23.9816 34.8945 24.5176 34.6437 24.6159 34.5622C24.7801 34.4257 26.0485 33.9853 27.3553 33.6107C27.6501 33.5263 27.9449 33.4181 28.0104 33.3703C28.0759 33.3226 28.4243 33.2125 28.7846 33.1257C29.1448 33.0389 29.4932 32.9259 29.5587 32.8746C29.7137 32.753 31.1701 32.3754 31.4835 32.3754C31.6166 32.3754 31.8978 32.2852 32.1083 32.1749C32.3189 32.0646 32.7014 31.9448 32.9586 31.9085C33.2157 31.8724 33.4871 31.7656 33.5616 31.6713C33.6361 31.5771 33.7842 31.4995 33.8908 31.4992C33.9975 31.4987 34.2272 31.4204 34.4012 31.325C34.5753 31.2297 34.7629 31.1959 34.8181 31.2501C34.8733 31.3042 35.0876 31.3859 35.2942 31.4315C35.6024 31.4997 35.7207 31.4572 35.9519 31.1954C36.1926 30.9228 36.3724 30.8645 37.1841 30.7958C37.7067 30.7516 38.1959 30.6646 38.271 30.6026C38.3463 30.5406 38.5875 30.5022 38.807 30.5171C39.0266 30.5321 39.3134 30.4857 39.4444 30.414C39.5755 30.3424 40.1783 30.2484 40.7839 30.2053C41.3896 30.1623 41.9791 30.0745 42.0941 30.0101C42.209 29.9458 42.853 29.8262 43.5252 29.7443C44.1973 29.6624 44.7752 29.5481 44.8094 29.4902C44.8435 29.4321 44.9397 29.4124 45.0232 29.446C45.1067 29.4797 45.5879 29.2802 46.0924 29.0028C46.5969 28.7254 47.1133 28.4984 47.2399 28.4984C47.3665 28.4984 47.5017 28.4447 47.5404 28.3789C47.5791 28.3131 47.6934 28.2926 47.7944 28.3332C48.0579 28.4394 48.8136 28.181 50.0448 27.5637C50.6344 27.2682 51.8135 26.7033 52.6651 26.3085C53.5167 25.9137 54.6422 25.3775 55.1663 25.1169C55.6904 24.8564 56.4618 24.4836 56.8807 24.2885C57.5716 23.9667 61.8243 21.7716 62.2531 21.5155C62.3513 21.4568 62.5657 21.3325 62.7295 21.2393C62.8932 21.1462 63.2952 20.9148 63.6228 20.7253C63.9503 20.5357 64.4327 20.2677 64.6947 20.1298C64.9567 19.9919 65.5731 19.6254 66.0644 19.3155C66.5557 19.0056 67.2257 18.6093 67.5532 18.4347C67.8808 18.2602 68.3631 17.981 68.6252 17.8141C68.8872 17.6473 69.4213 17.3348 69.8119 17.1198C70.2027 16.9047 70.5779 16.6816 70.6457 16.6239C70.7136 16.5663 70.9834 16.3911 71.2455 16.2345C71.5075 16.0778 71.9363 15.8184 72.1983 15.6578C72.4603 15.4974 72.9427 15.224 73.2703 15.0505C73.8522 14.7423 74.076 14.6074 75.295 13.8312C75.6226 13.6226 76.3193 13.2172 76.8434 12.9305C77.9291 12.3363 78.6936 11.8857 78.8701 11.7358C78.9366 11.6794 79.5433 11.3336 80.2181 10.9675C80.893 10.6015 81.6961 10.1502 82.0028 9.96489C82.3095 9.77955 83.0428 9.36659 83.6324 9.04706C84.222 8.72765 85.1063 8.2209 85.5976 7.921C86.0889 7.62123 86.5713 7.33984 86.6696 7.29582C86.7678 7.25179 87.1966 7.05695 87.6224 6.86285C88.0482 6.66863 88.5842 6.47341 88.8135 6.42889C89.0427 6.38436 89.3375 6.29795 89.4685 6.23692C89.5996 6.17589 90.5081 6.03832 91.4876 5.93139C92.467 5.82434 93.3218 5.68064 93.3873 5.61186C93.4527 5.5432 93.7367 5.48705 94.0183 5.48705C94.3 5.48705 94.5305 5.43077 94.5305 5.36198C94.5305 5.2932 94.6613 5.23692 94.8212 5.23692C94.9812 5.23692 95.1406 5.1884 95.1755 5.12899C95.2105 5.06971 95.495 4.9484 95.8078 4.85961C96.1207 4.77082 96.4838 4.639 96.6148 4.56659C97.008 4.34936 98.0317 4.00219 98.1166 4.05721C98.1601 4.08548 98.2619 4.02482 98.3429 3.9224C98.4239 3.81997 98.5646 3.73618 98.6555 3.73618C98.7465 3.73618 99.048 3.6285 99.3258 3.49694C100.099 3.13075 100.667 2.9708 100.884 3.05834C100.994 3.10262 101.081 3.0766 101.081 2.99919C101.081 2.92303 101.212 2.86075 101.372 2.86075C101.532 2.86075 101.696 2.80447 101.736 2.73568C101.777 2.6669 101.986 2.61062 102.201 2.61062C102.417 2.61062 102.761 2.52245 102.967 2.41465C103.173 2.30685 103.394 2.25319 103.459 2.29534C103.524 2.33749 103.726 2.25857 103.908 2.12C104.089 1.98144 104.425 1.84849 104.654 1.82461C104.884 1.8006 105.178 1.72106 105.309 1.6479C105.851 1.34487 106.263 1.34187 106.686 1.63802C106.96 1.82974 107.313 1.93791 107.749 1.9633C108.109 1.98431 108.564 2.07873 108.762 2.17316C108.959 2.26745 109.362 2.4144 109.657 2.49957C109.952 2.58473 110.257 2.70492 110.335 2.7667C110.413 2.82848 110.573 2.86337 110.692 2.84424C110.81 2.8251 111.029 2.87988 111.178 2.96592C111.327 3.05197 111.495 3.09236 111.552 3.05547C111.675 2.9753 113 3.2323 113.171 3.36937C113.382 3.53896 116.429 3.55371 116.589 3.38588C116.781 3.18428 117.406 3.20267 117.677 3.4179C117.904 3.59886 118.665 3.55271 118.882 3.34474C118.944 3.28483 119.134 3.23593 119.304 3.23593C119.475 3.23593 119.673 3.17353 119.746 3.09736C119.843 2.99594 119.993 2.99856 120.306 3.10699C120.675 3.23506 121.674 3.23568 123.622 3.10887C123.736 3.10149 123.83 3.05384 123.83 3.00319C123.83 2.90627 124.555 2.59699 124.962 2.52058C125.093 2.49581 125.571 2.44904 126.023 2.41653C126.476 2.38401 126.914 2.29909 126.995 2.22781C127.099 2.13789 127.169 2.14026 127.225 2.23544C127.275 2.32148 127.357 2.32961 127.444 2.2572C127.577 2.14627 128.077 2.02258 128.722 1.94167C128.89 1.92053 129.098 1.85737 129.184 1.80135C129.42 1.64877 130.273 1.68379 130.679 1.86275C130.875 1.94929 131.491 2.25157 132.048 2.53433C132.604 2.81697 133.152 3.05459 133.264 3.06235C133.377 3.06997 133.592 3.16002 133.742 3.26232C133.891 3.36462 134.219 3.48831 134.469 3.53721C134.72 3.58598 135.095 3.7238 135.303 3.84323C135.511 3.96267 135.922 4.13825 136.217 4.23343C136.512 4.32872 136.807 4.44566 136.872 4.4933C136.938 4.54108 137.152 4.61136 137.349 4.64938C138.063 4.78757 138.9 5.01781 139.016 5.10798C139.082 5.15876 139.564 5.27306 140.088 5.36198C140.612 5.4509 141.102 5.57371 141.177 5.63474C141.252 5.6959 141.601 5.77857 141.951 5.81871C142.302 5.85873 142.755 5.99054 142.958 6.11148C143.221 6.26818 143.386 6.2967 143.533 6.2104C143.734 6.0921 144.457 6.13262 145.249 6.3067C145.476 6.3566 145.756 6.33509 145.904 6.25655C146.046 6.18089 147.234 6.06558 148.545 6.00017C150.603 5.89725 151.064 5.83547 151.939 5.54495C152.496 5.35998 153.002 5.15876 153.065 5.09773C153.218 4.94703 153.813 4.95703 153.904 5.11186C153.945 5.18064 154.103 5.23692 154.255 5.23692C154.408 5.23692 154.927 5.36999 155.409 5.53269C155.892 5.6954 156.528 5.90238 156.822 5.99267C157.117 6.08297 157.439 6.22454 157.537 6.30733C157.635 6.39024 157.85 6.50017 158.013 6.5517C158.177 6.60322 158.454 6.7513 158.629 6.88061C158.804 7.00992 159.26 7.28806 159.642 7.49867C160.455 7.94701 161.313 8.44301 162.063 8.89861C162.57 9.20664 163.872 9.96776 164.551 10.3536C164.722 10.4508 164.932 10.6336 165.018 10.76C165.103 10.8863 165.266 10.9898 165.379 10.9898C165.492 10.9898 165.931 11.1846 166.355 11.4226C166.778 11.6607 167.434 12.0219 167.811 12.2254C168.188 12.4287 168.661 12.7404 168.862 12.918C169.063 13.0956 169.333 13.2409 169.461 13.2409C169.589 13.2409 169.837 13.3394 170.012 13.4597C170.591 13.8581 171.322 14.2566 172.246 14.6788C174.52 15.7167 175.241 16.1181 175.439 16.455C175.491 16.5444 175.638 16.6176 175.766 16.6176C175.894 16.6176 175.998 16.7 175.998 16.8008C175.998 17.0516 176.412 17.2635 176.74 17.1811C176.941 17.1307 177.207 17.2745 177.777 17.7409C178.198 18.086 178.659 18.3684 178.802 18.3684C179.015 18.3684 179.052 18.4248 179.005 18.6811C178.954 18.9605 178.988 18.9937 179.319 18.9937C179.713 18.9937 179.781 18.8889 179.548 18.6436C179.436 18.5269 179.452 18.4935 179.618 18.4935C179.736 18.4935 179.859 18.6033 179.893 18.7376C179.935 18.9076 180.049 18.9771 180.269 18.9668C180.442 18.9587 180.678 18.9956 180.792 19.0488C180.976 19.1343 181.001 19.0673 181 18.4756C180.999 17.8543 180.971 17.7878 180.613 17.5598C180.4 17.4246 180.163 17.3114 180.086 17.3081C180.009 17.3049 179.906 17.2607 179.858 17.21C179.809 17.1593 179.621 17.1178 179.439 17.1178C179.258 17.1178 179.076 17.0615 179.035 16.9927C178.995 16.924 178.839 16.8677 178.688 16.8677C178.537 16.8677 178.179 16.6712 177.891 16.4312C177.603 16.1911 177.308 15.9941 177.234 15.9935C177.16 15.9927 177.031 15.9055 176.947 15.7993C176.863 15.6932 176.709 15.6244 176.605 15.6467C176.5 15.6688 176.282 15.5588 176.119 15.402C175.956 15.2451 175.776 15.1168 175.72 15.1168C175.664 15.1168 175.45 14.9914 175.245 14.8382C174.829 14.5264 173.085 13.6161 172.904 13.6161C172.84 13.6161 172.613 13.5038 172.398 13.3664C172.184 13.2291 171.928 13.1153 171.83 13.1136C171.731 13.1117 171.517 13.0003 171.353 12.8657C171.189 12.7311 170.993 12.6198 170.917 12.6183C170.841 12.6168 170.494 12.4186 170.145 12.1779C169.797 11.9371 169.425 11.7401 169.317 11.7401C169.21 11.7401 168.985 11.627 168.818 11.4888C168.651 11.3504 168.121 11.0205 167.641 10.7557C167.16 10.4906 166.448 10.0961 166.056 9.87884C165.665 9.66161 165.276 9.51129 165.193 9.54505C165.109 9.5787 165.041 9.52905 165.041 9.43488C165.041 9.26054 164.797 9.09833 163.314 8.28731C162.855 8.03656 162.453 7.79519 162.42 7.75092C162.388 7.70677 162.227 7.59909 162.063 7.51167C161.899 7.42438 161.444 7.16 161.051 6.92438C160.658 6.68864 159.947 6.29119 159.472 6.04107C158.998 5.79107 158.609 5.54495 158.609 5.4943C158.609 5.44352 158.381 5.32672 158.103 5.23467C157.824 5.14275 157.516 4.99968 157.418 4.91689C157.32 4.83397 157.105 4.72454 156.942 4.67364C156.778 4.62274 156.59 4.53783 156.525 4.48517C156.459 4.4324 156.084 4.31859 155.691 4.2323C155.298 4.14588 154.843 3.9888 154.68 3.88313C154.253 3.60712 152.576 3.60386 152.177 3.8785C152.014 3.99118 151.504 4.15138 151.046 4.23455C150.587 4.31772 150.119 4.43678 150.005 4.49918C149.89 4.56146 149.243 4.60323 148.565 4.59173C147.888 4.58035 147.267 4.61411 147.186 4.66676C147.105 4.71942 146.137 4.76094 145.034 4.75906C143.414 4.75643 142.957 4.71641 142.652 4.55083C142.445 4.43815 142.158 4.35774 142.015 4.37224C141.872 4.38675 141.675 4.36449 141.577 4.32272C141.479 4.28107 141.05 4.1864 140.624 4.11237C140.198 4.03833 139.743 3.9294 139.612 3.87012C139.481 3.81084 139.052 3.69191 138.659 3.60586C138.266 3.5197 137.826 3.37312 137.68 3.28008C137.535 3.18703 137.282 3.11087 137.117 3.11087C136.813 3.11087 135.58 2.64776 134.747 2.22018C134.495 2.09099 134.215 1.98531 134.125 1.98531C134.035 1.98531 133.668 1.84462 133.31 1.67266C132.952 1.5007 132.589 1.35975 132.503 1.3595C132.417 1.35925 132.186 1.25883 131.989 1.13627C131.792 1.01371 131.267 0.753202 130.822 0.557355C130.1 0.239573 129.927 0.210308 129.219 0.286471C128.783 0.333369 128.37 0.416911 128.302 0.472063C128.127 0.613258 126.58 0.859755 125.869 0.859755C125.542 0.859755 125.241 0.916033 125.2 0.984817C125.16 1.0536 125.019 1.10988 124.888 1.10988C124.598 1.10988 123.468 1.47894 123.273 1.63751C123.195 1.7003 122.546 1.78409 121.831 1.82373C120.704 1.88614 120.48 1.86513 120.16 1.6664C119.806 1.44705 119.78 1.44667 119.558 1.65815C119.353 1.85312 118.983 1.88601 116.427 1.93654C113.69 1.99081 112.213 1.88476 111.86 1.60913C111.795 1.55785 111.42 1.47769 111.027 1.43091C110.254 1.33912 109.688 1.18679 109.113 0.916658C108.913 0.822361 108.511 0.710306 108.22 0.66766C107.929 0.625014 107.584 0.545974 107.453 0.491948C106.843 0.240198 106.007 -0.0151783 105.845 0.00070454C105.747 0.0103343 105.345 0.0988781 104.952 0.197302Z" fill="#BBB092"/>
</g>
<defs>
<filter id="filter0_d_56_141" x="0" y="0" width="185" height="50" filterUnits="userSpaceOnUse" color-interpolation-filters="sRGB">
<feFlood flood-opacity="0" result="BackgroundImageFix"/>
<feColorMatrix in="SourceAlpha" type="matrix" values="0 0 0 0 0 0 0 0 0 0 0 0 0 0 0 0 0 0 127 0" result="hardAlpha"/>
<feOffset dy="4"/>
<feGaussianBlur stdDeviation="2"/>
<feComposite in2="hardAlpha" operator="out"/>
<feColorMatrix type="matrix" values="0 0 0 0 0 0 0 0 0 0 0 0 0 0 0 0 0 0 0.15 0"/>
<feBlend mode="normal" in2="BackgroundImageFix" result="effect1_dropShadow_56_141"/>
<feBlend mode="normal" in="SourceGraphic" in2="effect1_dropShadow_56_141" result="shape"/>
</filter>
</defs>
</svg>
