<svg width="47" height="61" viewBox="0 0 47 61" fill="none" xmlns="http://www.w3.org/2000/svg">
<path d="M21.6896 13.1726C21.534 12.4196 14.462 1.3119 13.7883 0.762338C13.22 0.298697 12.5342 0.115944 11.8674 0.25043C11.2067 0.383599 3.78917 4.92803 2.99988 5.68323C1.73661 6.89194 1.27892 7.45315 0.766677 8.8773C0.592323 9.36204 0.411647 9.94676 0.190735 10.691C-0.0352494 12.1169 0.114322 13.6116 0.480608 15.2192C1.21791 18.455 3.42552 23.4053 6.67651 29.1128C9.54885 34.1555 14.2653 41.5509 17.6411 46.305C21.6392 51.9356 25.5818 56.4086 28.1482 58.2257C30.991 60.2385 34.6359 60.8773 37.5633 59.8756C38.6066 59.5187 46.0638 55.0365 46.4783 54.5173C46.8967 53.9932 47.0316 53.3124 46.8564 52.6102C46.6487 51.7779 39.5588 40.681 38.9351 40.2121C38.4159 39.8218 37.61 39.6081 37.1129 39.7291C36.914 39.7774 35.2821 40.4626 33.4865 41.2517C31.1595 42.2742 30.1067 42.6807 29.8216 42.6669C28.2281 42.5894 25.9594 40.1661 22.3223 34.6565C16.6858 26.1181 14.6367 21.7952 15.4045 20.0623C15.5178 19.8066 16.3569 19.0651 18.3256 17.4808C19.8449 16.2584 21.1961 15.1332 21.3285 14.9805C21.6594 14.5991 21.8191 13.7994 21.6896 13.1726Z" fill="#005842" fill-opacity="0.4"/>
</svg>
