<svg width="57" height="54" viewBox="0 0 57 54" fill="none" xmlns="http://www.w3.org/2000/svg">
<path fill-rule="evenodd" clip-rule="evenodd" d="M16.515 27V54L34.3047 53.9974C45.8884 53.9957 52.2676 53.9566 52.5908 53.8854C54.4209 53.4827 56.0211 51.955 56.443 50.2079C56.5172 49.9006 56.5585 44.3972 56.5603 34.5557C56.5632 18.1885 56.5845 18.8107 55.9838 17.6865C55.3617 16.5226 53.6448 15.3243 52.3671 15.1626L51.8116 15.0921V12.5231V9.95404L46.5251 4.97707L41.2387 0H28.8768H16.515V27ZM37.7835 8.316V13.284H43.044H48.3045V18.036V22.788H34.1633H20.0221V13.068V3.348H28.9028H37.7835V8.316ZM44.0622 7.344L46.7755 9.936H44.033H41.2905V7.344C41.2905 5.9184 41.3036 4.752 41.3197 4.752C41.3357 4.752 42.5699 5.9184 44.0622 7.344ZM3.56019 15.3143C2.33658 15.7182 1.10561 16.6979 0.575714 17.6896C-0.0231957 18.8101 -0.00215346 18.1939 0.000787918 34.5557C0.002598 44.3972 0.0438904 49.9006 0.118104 50.2079C0.539965 51.955 2.14019 53.4827 3.97029 53.8854C4.25764 53.9487 6.28934 53.9958 8.79392 53.9974L13.1211 54V34.56V15.12L8.62423 15.1236C4.65755 15.1266 4.06045 15.1492 3.56019 15.3143ZM48.3045 31.05V33.264H34.2199H20.1352V31.05V28.836H34.2199H48.3045V31.05ZM26.6967 38.448V40.608H23.416H20.1352V38.448V36.288H23.416H26.6967V38.448ZM37.5572 38.448V40.608H34.2199H30.8825V38.448V36.288H34.2199H37.5572V38.448ZM48.3045 38.448V40.608H45.0238H41.743V38.448V36.288H45.0238H48.3045V38.448ZM26.6967 45.468V47.628H23.416H20.1352V45.468V43.308H23.416H26.6967V45.468ZM37.5572 45.468V47.628H34.2199H30.8825V45.468V43.308H34.2199H37.5572V45.468ZM48.3045 45.468V47.628H45.0238H41.743V45.468V43.308H45.0238H48.3045V45.468Z" fill="#005842" fill-opacity="0.4"/>
</svg>
